  0
SECTION
  2
HEADER
  9
$ACADVER
  1
AC1009
  9
$MEASUREMENT
 70
     1
  0
ENDSEC
  0
SECTION
  2
ENTITIES
  0
LWPOLYLINE
  8
0
 62
7
 90
5
 70
1
 10
32.120000
 20
29.781562
 10
32.618437
 20
29.781562
 10
32.618437
 20
30.878437
 10
31.621562
 20
30.878437
 10
31.621562
 20
29.781562
  0
LWPOLYLINE
  8
0
 62
7
 90
5
 70
1
 10
32.120000
 20
28.081563
 10
32.618437
 20
28.081563
 10
32.618437
 20
29.178437
 10
31.621562
 20
29.178437
 10
31.621562
 20
28.081563
  0
LWPOLYLINE
  8
0
 62
7
 90
5
 70
1
 10
26.221563
 20
24.180000
 10
26.221563
 20
23.681562
 10
27.318437
 20
23.681562
 10
27.318437
 20
24.678438
 10
26.221563
 20
24.678438
  0
LWPOLYLINE
  8
0
 62
7
 90
5
 70
1
 10
24.521563
 20
24.180000
 10
24.521563
 20
23.681562
 10
25.618437
 20
23.681562
 10
25.618437
 20
24.678438
 10
24.521563
 20
24.678438
  0
LWPOLYLINE
  8
0
 62
7
 90
5
 70
1
 10
31.020000
 20
21.278437
 10
30.521562
 20
21.278437
 10
30.521562
 20
20.181563
 10
31.518438
 20
20.181563
 10
31.518438
 20
21.278437
  0
LWPOLYLINE
  8
0
 62
7
 90
5
 70
1
 10
31.020000
 20
22.978437
 10
30.521562
 20
22.978437
 10
30.521562
 20
21.881563
 10
31.518438
 20
21.881563
 10
31.518438
 20
22.978437
  0
LWPOLYLINE
  8
0
 62
7
 90
5
 70
1
 10
33.320000
 20
21.378437
 10
32.821562
 20
21.378437
 10
32.821562
 20
20.281562
 10
33.818438
 20
20.281562
 10
33.818438
 20
21.378437
  0
LWPOLYLINE
  8
0
 62
7
 90
5
 70
1
 10
33.320000
 20
23.078437
 10
32.821562
 20
23.078437
 10
32.821562
 20
21.981563
 10
33.818438
 20
21.981563
 10
33.818438
 20
23.078437
  0
LWPOLYLINE
  8
0
 62
7
 90
5
 70
1
 10
48.362437
 20
12.934000
 10
48.362437
 20
13.432437
 10
47.265563
 20
13.432437
 10
47.265563
 20
12.435562
 10
48.362437
 20
12.435562
  0
LWPOLYLINE
  8
0
 62
7
 90
5
 70
1
 10
50.062438
 20
12.934000
 10
50.062438
 20
13.432437
 10
48.965563
 20
13.432437
 10
48.965563
 20
12.435562
 10
50.062438
 20
12.435562
  0
LWPOLYLINE
  8
0
 62
7
 90
5
 70
1
 10
42.316000
 20
32.025562
 10
42.639437
 20
32.025562
 10
42.639437
 20
34.222438
 10
41.992563
 20
34.222438
 10
41.992563
 20
32.025562
  0
LWPOLYLINE
  8
0
 62
7
 90
5
 70
1
 10
42.316000
 20
35.725562
 10
42.639437
 20
35.725562
 10
42.639437
 20
37.922438
 10
41.992563
 20
37.922438
 10
41.992563
 20
35.725562
  0
LWPOLYLINE
  8
0
 62
7
 90
5
 70
1
 10
47.314563
 20
32.977600
 10
47.314563
 20
32.479163
 10
48.411437
 20
32.479163
 10
48.411437
 20
33.476038
 10
47.314563
 20
33.476038
  0
LWPOLYLINE
  8
0
 62
7
 90
5
 70
1
 10
45.614562
 20
32.977600
 10
45.614562
 20
32.479163
 10
46.711437
 20
32.479163
 10
46.711437
 20
33.476038
 10
45.614562
 20
33.476038
  0
LWPOLYLINE
  8
0
 62
7
 90
5
 70
1
 10
47.542963
 20
35.611600
 10
47.542963
 20
35.113163
 10
48.639837
 20
35.113163
 10
48.639837
 20
36.110038
 10
47.542963
 20
36.110038
  0
LWPOLYLINE
  8
0
 62
7
 90
5
 70
1
 10
45.842962
 20
35.611600
 10
45.842962
 20
35.113163
 10
46.939837
 20
35.113163
 10
46.939837
 20
36.110038
 10
45.842962
 20
36.110038
  0
LWPOLYLINE
  8
0
 62
7
 90
5
 70
1
 10
28.521563
 20
21.880000
 10
28.521563
 20
21.381562
 10
29.618437
 20
21.381562
 10
29.618437
 20
22.378438
 10
28.521563
 20
22.378438
  0
LWPOLYLINE
  8
0
 62
7
 90
5
 70
1
 10
26.821563
 20
21.880000
 10
26.821563
 20
21.381562
 10
27.918437
 20
21.381562
 10
27.918437
 20
22.378438
 10
26.821563
 20
22.378438
  0
LWPOLYLINE
  8
0
 62
7
 90
5
 70
1
 10
25.620000
 20
32.581563
 10
26.118438
 20
32.581563
 10
26.118438
 20
33.678438
 10
25.121562
 20
33.678438
 10
25.121562
 20
32.581563
  0
LWPOLYLINE
  8
0
 62
7
 90
5
 70
1
 10
25.620000
 20
30.881563
 10
26.118438
 20
30.881563
 10
26.118438
 20
31.978437
 10
25.121562
 20
31.978437
 10
25.121562
 20
30.881563
  0
LWPOLYLINE
  8
0
 62
7
 90
5
 70
1
 10
27.920000
 20
32.681562
 10
28.418438
 20
32.681562
 10
28.418438
 20
33.778437
 10
27.421563
 20
33.778437
 10
27.421563
 20
32.681562
  0
LWPOLYLINE
  8
0
 62
7
 90
5
 70
1
 10
27.920000
 20
30.981563
 10
28.418438
 20
30.981563
 10
28.418438
 20
32.078437
 10
27.421563
 20
32.078437
 10
27.421563
 20
30.981563
  0
LWPOLYLINE
  8
0
 62
7
 90
5
 70
1
 10
26.421563
 20
29.580000
 10
26.421563
 20
29.081562
 10
27.518437
 20
29.081562
 10
27.518437
 20
30.078437
 10
26.421563
 20
30.078437
  0
LWPOLYLINE
  8
0
 62
7
 90
5
 70
1
 10
24.721563
 20
29.580000
 10
24.721563
 20
29.081562
 10
25.818437
 20
29.081562
 10
25.818437
 20
30.078437
 10
24.721563
 20
30.078437
  0
LWPOLYLINE
  8
0
 62
7
 90
5
 70
1
 10
28.918437
 20
29.580000
 10
28.918437
 20
30.078437
 10
27.821563
 20
30.078437
 10
27.821563
 20
29.081562
 10
28.918437
 20
29.081562
  0
LWPOLYLINE
  8
0
 62
7
 90
5
 70
1
 10
30.618437
 20
29.580000
 10
30.618437
 20
30.078437
 10
29.521563
 20
30.078437
 10
29.521563
 20
29.081562
 10
30.618437
 20
29.081562
  0
LWPOLYLINE
  8
0
 62
7
 90
5
 70
1
 10
25.420000
 20
21.581563
 10
25.918438
 20
21.581563
 10
25.918438
 20
22.678437
 10
24.921563
 20
22.678437
 10
24.921563
 20
21.581563
  0
LWPOLYLINE
  8
0
 62
7
 90
5
 70
1
 10
25.420000
 20
19.881563
 10
25.918438
 20
19.881563
 10
25.918438
 20
20.978437
 10
24.921563
 20
20.978437
 10
24.921563
 20
19.881563
  0
LWPOLYLINE
  8
0
 62
7
 90
5
 70
1
 10
37.408437
 20
27.599000
 10
37.408437
 20
28.257438
 10
36.091563
 20
28.257438
 10
36.091563
 20
26.940562
 10
37.408437
 20
26.940562
  0
LWPOLYLINE
  8
0
 62
7
 90
5
 70
1
 10
36.750000
 20
24.400562
 10
37.408437
 20
24.400562
 10
37.408437
 20
25.717438
 10
36.091563
 20
25.717438
 10
36.091563
 20
24.400562
  0
LWPOLYLINE
  8
0
 62
7
 90
5
 70
1
 10
36.750000
 20
21.860562
 10
37.408437
 20
21.860562
 10
37.408437
 20
23.177437
 10
36.091563
 20
23.177437
 10
36.091563
 20
21.860562
  0
LWPOLYLINE
  8
0
 62
7
 90
5
 70
1
 10
36.750000
 20
19.320562
 10
37.408437
 20
19.320562
 10
37.408437
 20
20.637438
 10
36.091563
 20
20.637438
 10
36.091563
 20
19.320562
  0
LWPOLYLINE
  8
0
 62
7
 90
5
 70
1
 10
39.417000
 20
17.161562
 10
40.075437
 20
17.161562
 10
40.075437
 20
18.478438
 10
38.758563
 20
18.478438
 10
38.758563
 20
17.161562
  0
LWPOLYLINE
  8
0
 62
7
 90
5
 70
1
 10
41.957000
 20
17.161562
 10
42.615437
 20
17.161562
 10
42.615437
 20
18.478438
 10
41.298563
 20
18.478438
 10
41.298563
 20
17.161562
  0
LWPOLYLINE
  8
0
 62
7
 90
5
 70
1
 10
44.497000
 20
17.161562
 10
45.155437
 20
17.161562
 10
45.155437
 20
18.478438
 10
43.838563
 20
18.478438
 10
43.838563
 20
17.161562
  0
LWPOLYLINE
  8
0
 62
7
 90
5
 70
1
 10
47.037000
 20
17.161562
 10
47.695437
 20
17.161562
 10
47.695437
 20
18.478438
 10
46.378563
 20
18.478438
 10
46.378563
 20
17.161562
  0
LWPOLYLINE
  8
0
 62
7
 90
5
 70
1
 10
49.450000
 20
20.209562
 10
50.108438
 20
20.209562
 10
50.108438
 20
21.526438
 10
48.791563
 20
21.526438
 10
48.791563
 20
20.209562
  0
LWPOLYLINE
  8
0
 62
7
 90
5
 70
1
 10
49.450000
 20
22.749562
 10
50.108438
 20
22.749562
 10
50.108438
 20
24.066438
 10
48.791563
 20
24.066438
 10
48.791563
 20
22.749562
  0
LWPOLYLINE
  8
0
 62
7
 90
5
 70
1
 10
49.450000
 20
25.289562
 10
50.108438
 20
25.289562
 10
50.108438
 20
26.606438
 10
48.791563
 20
26.606438
 10
48.791563
 20
25.289562
  0
LWPOLYLINE
  8
0
 62
7
 90
5
 70
1
 10
49.450000
 20
27.829562
 10
50.108438
 20
27.829562
 10
50.108438
 20
29.146438
 10
48.791563
 20
29.146438
 10
48.791563
 20
27.829562
  0
LWPOLYLINE
  8
0
 62
7
 90
5
 70
1
 10
47.291000
 20
29.861562
 10
47.949437
 20
29.861562
 10
47.949437
 20
31.178438
 10
46.632562
 20
31.178438
 10
46.632562
 20
29.861562
  0
LWPOLYLINE
  8
0
 62
7
 90
5
 70
1
 10
44.751000
 20
29.861562
 10
45.409437
 20
29.861562
 10
45.409437
 20
31.178438
 10
44.092562
 20
31.178438
 10
44.092562
 20
29.861562
  0
LWPOLYLINE
  8
0
 62
7
 90
5
 70
1
 10
42.211000
 20
29.861562
 10
42.869437
 20
29.861562
 10
42.869437
 20
31.178438
 10
41.552563
 20
31.178438
 10
41.552563
 20
29.861562
  0
LWPOLYLINE
  8
0
 62
7
 90
5
 70
1
 10
39.671000
 20
29.861562
 10
40.329437
 20
29.861562
 10
40.329437
 20
31.178438
 10
39.012563
 20
31.178438
 10
39.012563
 20
29.861562
  0
LWPOLYLINE
  8
0
 62
7
 90
5
 70
1
 10
28.639000
 20
26.680563
 10
29.337438
 20
26.680563
 10
29.337438
 20
27.477438
 10
27.940562
 20
27.477438
 10
27.940562
 20
26.680563
  0
LWPOLYLINE
  8
0
 62
7
 90
5
 70
1
 10
28.639000
 20
25.181562
 10
29.337438
 20
25.181562
 10
29.337438
 20
25.978437
 10
27.940562
 20
25.978437
 10
27.940562
 20
25.181562
  0
LWPOLYLINE
  8
0
 62
7
 90
5
 70
1
 10
28.639000
 20
23.682562
 10
29.337438
 20
23.682562
 10
29.337438
 20
24.479437
 10
27.940562
 20
24.479437
 10
27.940562
 20
23.682562
  0
LWPOLYLINE
  8
0
 62
7
 90
5
 70
1
 10
32.195000
 20
24.565562
 10
32.828437
 20
24.565562
 10
32.828437
 20
26.594437
 10
31.561563
 20
26.594437
 10
31.561563
 20
24.565562
  0
ENDSEC
  0
EOF
