  0
SECTION
  2
HEADER
  9
$ACADVER
  1
AC1009
  9
$MEASUREMENT
 70
     1
  0
ENDSEC
  0
SECTION
  2
ENTITIES
  0
LWPOLYLINE
  8
0
 62
7
 90
5
 70
1
 10
6.460000
 20
13.891562
 10
6.958437
 20
13.891562
 10
6.958437
 20
14.988437
 10
5.961563
 20
14.988437
 10
5.961563
 20
13.891562
  0
LWPOLYLINE
  8
0
 62
7
 90
5
 70
1
 10
6.460000
 20
12.191562
 10
6.958437
 20
12.191562
 10
6.958437
 20
13.288438
 10
5.961563
 20
13.288438
 10
5.961563
 20
12.191562
  0
LWPOLYLINE
  8
0
 62
7
 90
5
 70
1
 10
13.739562
 20
3.391400
 10
13.739562
 20
2.892962
 10
14.836438
 20
2.892962
 10
14.836438
 20
3.889838
 10
13.739562
 20
3.889838
  0
LWPOLYLINE
  8
0
 62
7
 90
5
 70
1
 10
12.039562
 20
3.391400
 10
12.039562
 20
2.892962
 10
13.136437
 20
2.892962
 10
13.136437
 20
3.889838
 10
12.039562
 20
3.889838
  0
LWPOLYLINE
  8
0
 62
7
 90
5
 70
1
 10
25.420000
 20
15.707562
 10
25.918438
 20
15.707562
 10
25.918438
 20
16.804437
 10
24.921563
 20
16.804437
 10
24.921563
 20
15.707562
  0
LWPOLYLINE
  8
0
 62
7
 90
5
 70
1
 10
25.420000
 20
14.007562
 10
25.918438
 20
14.007562
 10
25.918438
 20
15.104437
 10
24.921563
 20
15.104437
 10
24.921563
 20
14.007562
  0
LWPOLYLINE
  8
0
 62
7
 90
5
 70
1
 10
37.740000
 20
22.038437
 10
37.241563
 20
22.038437
 10
37.241563
 20
20.941562
 10
38.238438
 20
20.941562
 10
38.238438
 20
22.038437
  0
LWPOLYLINE
  8
0
 62
7
 90
5
 70
1
 10
37.740000
 20
23.738437
 10
37.241563
 20
23.738437
 10
37.241563
 20
22.641563
 10
38.238438
 20
22.641563
 10
38.238438
 20
23.738437
  0
LWPOLYLINE
  8
0
 62
7
 90
5
 70
1
 10
62.192437
 20
18.720000
 10
62.192437
 20
19.218438
 10
61.095562
 20
19.218438
 10
61.095562
 20
18.221562
 10
62.192437
 20
18.221562
  0
LWPOLYLINE
  8
0
 62
7
 90
5
 70
1
 10
63.892437
 20
18.720000
 10
63.892437
 20
19.218438
 10
62.795563
 20
19.218438
 10
62.795563
 20
18.221562
 10
63.892437
 20
18.221562
  0
LWPOLYLINE
  8
0
 62
7
 90
5
 70
1
 10
64.644000
 20
11.697563
 10
65.142437
 20
11.697563
 10
65.142437
 20
12.794438
 10
64.145563
 20
12.794438
 10
64.145563
 20
11.697563
  0
LWPOLYLINE
  8
0
 62
7
 90
5
 70
1
 10
64.644000
 20
9.997562
 10
65.142437
 20
9.997562
 10
65.142437
 20
11.094437
 10
64.145563
 20
11.094437
 10
64.145563
 20
9.997562
  0
LWPOLYLINE
  8
0
 62
7
 90
5
 70
1
 10
59.615563
 20
14.196000
 10
59.615563
 20
13.697563
 10
60.712438
 20
13.697563
 10
60.712438
 20
14.694437
 10
59.615563
 20
14.694437
  0
LWPOLYLINE
  8
0
 62
7
 90
5
 70
1
 10
57.915563
 20
14.196000
 10
57.915563
 20
13.697563
 10
59.012437
 20
13.697563
 10
59.012437
 20
14.694437
 10
57.915563
 20
14.694437
  0
LWPOLYLINE
  8
0
 62
7
 90
5
 70
1
 10
48.942437
 20
20.802000
 10
48.942437
 20
21.300438
 10
47.845562
 20
21.300438
 10
47.845562
 20
20.303562
 10
48.942437
 20
20.303562
  0
LWPOLYLINE
  8
0
 62
7
 90
5
 70
1
 10
50.642437
 20
20.802000
 10
50.642437
 20
21.300438
 10
49.545563
 20
21.300438
 10
49.545563
 20
20.303562
 10
50.642437
 20
20.303562
  0
LWPOLYLINE
  8
0
 62
7
 90
5
 70
1
 10
33.988437
 20
10.446000
 10
33.988437
 20
10.944437
 10
32.891562
 20
10.944437
 10
32.891562
 20
9.947563
 10
33.988437
 20
9.947563
  0
LWPOLYLINE
  8
0
 62
7
 90
5
 70
1
 10
35.688437
 20
10.446000
 10
35.688437
 20
10.944437
 10
34.591563
 20
10.944437
 10
34.591563
 20
9.947563
 10
35.688437
 20
9.947563
  0
LWPOLYLINE
  8
0
 62
7
 90
5
 70
1
 10
7.940000
 20
3.661563
 10
8.638438
 20
3.661563
 10
8.638438
 20
6.658437
 10
7.241563
 20
6.658437
 10
7.241563
 20
3.661563
  0
LWPOLYLINE
  8
0
 62
7
 90
5
 70
1
 10
7.940000
 20
8.461563
 10
8.638438
 20
8.461563
 10
8.638438
 20
11.458438
 10
7.241563
 20
11.458438
 10
7.241563
 20
8.461563
  0
LWPOLYLINE
  8
0
 62
7
 90
5
 70
1
 10
24.570000
 20
5.471563
 10
24.893438
 20
5.471563
 10
24.893438
 20
7.668438
 10
24.246562
 20
7.668438
 10
24.246562
 20
5.471563
  0
LWPOLYLINE
  8
0
 62
7
 90
5
 70
1
 10
24.570000
 20
9.171563
 10
24.893438
 20
9.171563
 10
24.893438
 20
11.368437
 10
24.246562
 20
11.368437
 10
24.246562
 20
9.171563
  0
LWPOLYLINE
  8
0
 62
7
 90
5
 70
1
 10
27.246437
 20
28.566000
 10
27.246437
 20
28.889437
 10
25.049563
 20
28.889437
 10
25.049563
 20
28.242562
 10
27.246437
 20
28.242562
  0
LWPOLYLINE
  8
0
 62
7
 90
5
 70
1
 10
23.546437
 20
28.566000
 10
23.546437
 20
28.889437
 10
21.349563
 20
28.889437
 10
21.349563
 20
28.242562
 10
23.546437
 20
28.242562
  0
LWPOLYLINE
  8
0
 62
7
 90
5
 70
1
 10
26.548437
 20
20.404000
 10
26.548437
 20
20.727438
 10
24.351562
 20
20.727438
 10
24.351562
 20
20.080562
 10
26.548437
 20
20.080562
  0
LWPOLYLINE
  8
0
 62
7
 90
5
 70
1
 10
22.848437
 20
20.404000
 10
22.848437
 20
20.727438
 10
20.651563
 20
20.727438
 10
20.651563
 20
20.080562
 10
22.848437
 20
20.080562
  0
LWPOLYLINE
  8
0
 62
7
 90
5
 70
1
 10
48.296000
 20
23.716438
 10
47.997563
 20
23.716438
 10
47.997563
 20
22.719562
 10
48.594437
 20
22.719562
 10
48.594437
 20
23.716438
  0
LWPOLYLINE
  8
0
 62
7
 90
5
 70
1
 10
48.296000
 20
25.916438
 10
47.997563
 20
25.916438
 10
47.997563
 20
24.919562
 10
48.594437
 20
24.919562
 10
48.594437
 20
25.916438
  0
LWPOLYLINE
  8
0
 62
7
 90
5
 70
1
 10
14.410000
 20
16.766563
 10
15.508437
 20
16.766563
 10
15.508437
 20
17.363437
 10
13.311563
 20
17.363437
 10
13.311563
 20
16.766563
  0
LWPOLYLINE
  8
0
 62
7
 90
5
 70
1
 10
14.410000
 20
15.496562
 10
15.508437
 20
15.496562
 10
15.508437
 20
16.093438
 10
13.311563
 20
16.093438
 10
13.311563
 20
15.496562
  0
LWPOLYLINE
  8
0
 62
7
 90
5
 70
1
 10
14.410000
 20
14.226562
 10
15.508437
 20
14.226562
 10
15.508437
 20
14.823438
 10
13.311563
 20
14.823438
 10
13.311563
 20
14.226562
  0
LWPOLYLINE
  8
0
 62
7
 90
5
 70
1
 10
14.410000
 20
12.956563
 10
15.508437
 20
12.956563
 10
15.508437
 20
13.553438
 10
13.311563
 20
13.553438
 10
13.311563
 20
12.956563
  0
LWPOLYLINE
  8
0
 62
7
 90
5
 70
1
 10
19.610000
 20
12.956563
 10
20.708437
 20
12.956563
 10
20.708437
 20
13.553438
 10
18.511563
 20
13.553438
 10
18.511563
 20
12.956563
  0
LWPOLYLINE
  8
0
 62
7
 90
5
 70
1
 10
19.610000
 20
14.226562
 10
20.708437
 20
14.226562
 10
20.708437
 20
14.823438
 10
18.511563
 20
14.823438
 10
18.511563
 20
14.226562
  0
LWPOLYLINE
  8
0
 62
7
 90
5
 70
1
 10
19.610000
 20
15.496562
 10
20.708437
 20
15.496562
 10
20.708437
 20
16.093438
 10
18.511563
 20
16.093438
 10
18.511563
 20
15.496562
  0
LWPOLYLINE
  8
0
 62
7
 90
5
 70
1
 10
19.610000
 20
16.766563
 10
20.708437
 20
16.766563
 10
20.708437
 20
17.363437
 10
18.511563
 20
17.363437
 10
18.511563
 20
16.766563
  0
LWPOLYLINE
  8
0
 62
7
 90
5
 70
1
 10
32.836000
 20
20.919562
 10
33.534437
 20
20.919562
 10
33.534437
 20
21.916438
 10
32.137563
 20
21.916438
 10
32.137563
 20
20.919562
  0
LWPOLYLINE
  8
0
 62
7
 90
5
 70
1
 10
32.836000
 20
19.019562
 10
33.534437
 20
19.019562
 10
33.534437
 20
20.016438
 10
32.137563
 20
20.016438
 10
32.137563
 20
19.019562
  0
LWPOLYLINE
  8
0
 62
7
 90
5
 70
1
 10
35.036000
 20
19.969562
 10
35.734437
 20
19.969562
 10
35.734437
 20
20.966438
 10
34.337563
 20
20.966438
 10
34.337563
 20
19.969562
  0
LWPOLYLINE
  8
0
 62
7
 90
5
 70
1
 10
59.686000
 20
9.937563
 10
60.384437
 20
9.937563
 10
60.384437
 20
10.934437
 10
58.987563
 20
10.934437
 10
58.987563
 20
9.937563
  0
LWPOLYLINE
  8
0
 62
7
 90
5
 70
1
 10
61.886000
 20
8.987563
 10
62.584437
 20
8.987563
 10
62.584437
 20
9.984438
 10
61.187563
 20
9.984438
 10
61.187563
 20
8.987563
  0
LWPOLYLINE
  8
0
 62
7
 90
5
 70
1
 10
59.686000
 20
8.037562
 10
60.384437
 20
8.037562
 10
60.384437
 20
9.034437
 10
58.987563
 20
9.034437
 10
58.987563
 20
8.037562
  0
LWPOLYLINE
  8
0
 62
7
 90
5
 70
1
 10
23.321563
 20
12.620000
 10
23.321563
 20
12.121562
 10
24.418437
 20
12.121562
 10
24.418437
 20
13.118437
 10
23.321563
 20
13.118437
  0
LWPOLYLINE
  8
0
 62
7
 90
5
 70
1
 10
21.621563
 20
12.620000
 10
21.621563
 20
12.121562
 10
22.718438
 20
12.121562
 10
22.718438
 20
13.118437
 10
21.621563
 20
13.118437
  0
LWPOLYLINE
  8
0
 62
7
 90
5
 70
1
 10
8.760000
 20
13.228438
 10
8.261563
 20
13.228438
 10
8.261563
 20
12.131562
 10
9.258437
 20
12.131562
 10
9.258437
 20
13.228438
  0
LWPOLYLINE
  8
0
 62
7
 90
5
 70
1
 10
8.760000
 20
14.928438
 10
8.261563
 20
14.928438
 10
8.261563
 20
13.831563
 10
9.258437
 20
13.831563
 10
9.258437
 20
14.928438
  0
LWPOLYLINE
  8
0
 62
7
 90
5
 70
1
 10
15.565563
 20
19.290000
 10
15.565563
 20
18.791562
 10
16.662437
 20
18.791562
 10
16.662437
 20
19.788438
 10
15.565563
 20
19.788438
  0
LWPOLYLINE
  8
0
 62
7
 90
5
 70
1
 10
13.865562
 20
19.290000
 10
13.865562
 20
18.791562
 10
14.962438
 20
18.791562
 10
14.962438
 20
19.788438
 10
13.865562
 20
19.788438
  0
LWPOLYLINE
  8
0
 62
7
 90
5
 70
1
 10
29.954000
 20
19.883563
 10
30.452438
 20
19.883563
 10
30.452438
 20
20.980437
 10
29.455562
 20
20.980437
 10
29.455562
 20
19.883563
  0
LWPOLYLINE
  8
0
 62
7
 90
5
 70
1
 10
29.954000
 20
18.183563
 10
30.452438
 20
18.183563
 10
30.452438
 20
19.280437
 10
29.455562
 20
19.280437
 10
29.455562
 20
18.183563
  0
LWPOLYLINE
  8
0
 62
7
 90
5
 70
1
 10
29.825000
 20
22.715837
 10
29.326562
 20
22.715837
 10
29.326562
 20
21.618963
 10
30.323438
 20
21.618963
 10
30.323438
 20
22.715837
  0
LWPOLYLINE
  8
0
 62
7
 90
5
 70
1
 10
29.825000
 20
24.415837
 10
29.326562
 20
24.415837
 10
29.326562
 20
23.318963
 10
30.323438
 20
23.318963
 10
30.323438
 20
24.415837
  0
LWPOLYLINE
  8
0
 62
7
 90
5
 70
1
 10
37.579563
 20
18.412000
 10
37.579563
 20
17.913562
 10
38.676437
 20
17.913562
 10
38.676437
 20
18.910438
 10
37.579563
 20
18.910438
  0
LWPOLYLINE
  8
0
 62
7
 90
5
 70
1
 10
35.879562
 20
18.412000
 10
35.879562
 20
17.913562
 10
36.976437
 20
17.913562
 10
36.976437
 20
18.910438
 10
35.879562
 20
18.910438
  0
LWPOLYLINE
  8
0
 62
7
 90
5
 70
1
 10
34.392363
 20
23.812000
 10
34.392363
 20
23.313562
 10
35.489238
 20
23.313562
 10
35.489238
 20
24.310438
 10
34.392363
 20
24.310438
  0
LWPOLYLINE
  8
0
 62
7
 90
5
 70
1
 10
32.692363
 20
23.812000
 10
32.692363
 20
23.313562
 10
33.789237
 20
23.313562
 10
33.789237
 20
24.310438
 10
32.692363
 20
24.310438
  0
LWPOLYLINE
  8
0
 62
7
 90
5
 70
1
 10
64.629562
 20
16.456000
 10
64.629562
 20
15.957562
 10
65.726438
 20
15.957562
 10
65.726438
 20
16.954438
 10
64.629562
 20
16.954438
  0
LWPOLYLINE
  8
0
 62
7
 90
5
 70
1
 10
62.929563
 20
16.456000
 10
62.929563
 20
15.957562
 10
64.026438
 20
15.957562
 10
64.026438
 20
16.954438
 10
62.929563
 20
16.954438
  0
LWPOLYLINE
  8
0
 62
7
 90
5
 70
1
 10
62.877563
 20
14.196000
 10
62.877563
 20
13.697563
 10
63.974438
 20
13.697563
 10
63.974438
 20
14.694437
 10
62.877563
 20
14.694437
  0
LWPOLYLINE
  8
0
 62
7
 90
5
 70
1
 10
61.177563
 20
14.196000
 10
61.177563
 20
13.697563
 10
62.274437
 20
13.697563
 10
62.274437
 20
14.694437
 10
61.177563
 20
14.694437
  0
LWPOLYLINE
  8
0
 62
7
 90
5
 70
1
 10
61.167563
 20
16.470000
 10
61.167563
 20
15.971562
 10
62.264437
 20
15.971562
 10
62.264437
 20
16.968438
 10
61.167563
 20
16.968438
  0
LWPOLYLINE
  8
0
 62
7
 90
5
 70
1
 10
59.467562
 20
16.470000
 10
59.467562
 20
15.971562
 10
60.564437
 20
15.971562
 10
60.564437
 20
16.968438
 10
59.467562
 20
16.968438
  0
LWPOLYLINE
  8
0
 62
7
 90
5
 70
1
 10
49.693562
 20
18.290000
 10
49.693562
 20
17.791562
 10
50.790437
 20
17.791562
 10
50.790437
 20
18.788438
 10
49.693562
 20
18.788438
  0
LWPOLYLINE
  8
0
 62
7
 90
5
 70
1
 10
47.993563
 20
18.290000
 10
47.993563
 20
17.791562
 10
49.090438
 20
17.791562
 10
49.090438
 20
18.788438
 10
47.993563
 20
18.788438
  0
LWPOLYLINE
  8
0
 62
7
 90
5
 70
1
 10
31.366000
 20
11.098438
 10
30.867562
 20
11.098438
 10
30.867562
 20
10.001563
 10
31.864438
 20
10.001563
 10
31.864438
 20
11.098438
  0
LWPOLYLINE
  8
0
 62
7
 90
5
 70
1
 10
31.366000
 20
12.798438
 10
30.867562
 20
12.798438
 10
30.867562
 20
11.701562
 10
31.864438
 20
11.701562
 10
31.864438
 20
12.798438
  0
LWPOLYLINE
  8
0
 62
7
 90
5
 70
1
 10
22.960000
 20
15.104437
 10
22.461562
 20
15.104437
 10
22.461562
 20
14.007562
 10
23.458438
 20
14.007562
 10
23.458438
 20
15.104437
  0
LWPOLYLINE
  8
0
 62
7
 90
5
 70
1
 10
22.960000
 20
16.804437
 10
22.461562
 20
16.804437
 10
22.461562
 20
15.707562
 10
23.458438
 20
15.707562
 10
23.458438
 20
16.804437
  0
LWPOLYLINE
  8
0
 62
7
 90
5
 70
1
 10
28.890000
 20
10.992438
 10
28.391562
 20
10.992438
 10
28.391562
 20
9.895563
 10
29.388438
 20
9.895563
 10
29.388438
 20
10.992438
  0
LWPOLYLINE
  8
0
 62
7
 90
5
 70
1
 10
28.890000
 20
12.692438
 10
28.391562
 20
12.692438
 10
28.391562
 20
11.595562
 10
29.388438
 20
11.595562
 10
29.388438
 20
12.692438
  0
LWPOLYLINE
  8
0
 62
7
 90
5
 70
1
 10
11.550000
 20
15.438438
 10
11.051563
 20
15.438438
 10
11.051563
 20
14.341563
 10
12.048438
 20
14.341563
 10
12.048438
 20
15.438438
  0
LWPOLYLINE
  8
0
 62
7
 90
5
 70
1
 10
11.550000
 20
17.138437
 10
11.051563
 20
17.138437
 10
11.051563
 20
16.041563
 10
12.048438
 20
16.041563
 10
12.048438
 20
17.138437
  0
LWPOLYLINE
  8
0
 62
7
 90
5
 70
1
 10
6.405000
 20
19.221563
 10
7.003438
 20
19.221563
 10
7.003438
 20
20.418437
 10
5.806563
 20
20.418437
 10
5.806563
 20
19.221563
  0
LWPOLYLINE
  8
0
 62
7
 90
5
 70
1
 10
9.730000
 20
18.071562
 10
10.528438
 20
18.071562
 10
10.528438
 20
19.568438
 10
8.931563
 20
19.568438
 10
8.931563
 20
18.071562
  0
LWPOLYLINE
  8
0
 62
7
 90
5
 70
1
 10
6.405000
 20
17.221563
 10
7.003438
 20
17.221563
 10
7.003438
 20
18.418437
 10
5.806563
 20
18.418437
 10
5.806563
 20
17.221563
  0
LWPOLYLINE
  8
0
 62
7
 90
5
 70
1
 10
20.283400
 20
6.623638
 10
19.268963
 20
6.623638
 10
19.268963
 20
5.966362
 10
21.297837
 20
5.966362
 10
21.297837
 20
6.623638
  0
LWPOLYLINE
  8
0
 62
7
 90
5
 70
1
 10
20.283400
 20
7.893638
 10
19.268963
 20
7.893638
 10
19.268963
 20
7.236363
 10
21.297837
 20
7.236363
 10
21.297837
 20
7.893638
  0
LWPOLYLINE
  8
0
 62
7
 90
5
 70
1
 10
20.283400
 20
9.163638
 10
19.268963
 20
9.163638
 10
19.268963
 20
8.506363
 10
21.297837
 20
8.506363
 10
21.297837
 20
9.163638
  0
LWPOLYLINE
  8
0
 62
7
 90
5
 70
1
 10
20.283400
 20
10.433637
 10
19.268963
 20
10.433637
 10
19.268963
 20
9.776363
 10
21.297837
 20
9.776363
 10
21.297837
 20
10.433637
  0
LWPOLYLINE
  8
0
 62
7
 90
5
 70
1
 10
14.136600
 20
10.433637
 10
13.122162
 20
10.433637
 10
13.122162
 20
9.776363
 10
15.151037
 20
9.776363
 10
15.151037
 20
10.433637
  0
LWPOLYLINE
  8
0
 62
7
 90
5
 70
1
 10
14.136600
 20
9.163638
 10
13.122162
 20
9.163638
 10
13.122162
 20
8.506363
 10
15.151037
 20
8.506363
 10
15.151037
 20
9.163638
  0
LWPOLYLINE
  8
0
 62
7
 90
5
 70
1
 10
14.136600
 20
7.893638
 10
13.122162
 20
7.893638
 10
13.122162
 20
7.236363
 10
15.151037
 20
7.236363
 10
15.151037
 20
7.893638
  0
LWPOLYLINE
  8
0
 62
7
 90
5
 70
1
 10
14.136600
 20
6.623638
 10
13.122162
 20
6.623638
 10
13.122162
 20
5.966362
 10
15.151037
 20
5.966362
 10
15.151037
 20
6.623638
  0
ENDSEC
  0
EOF
