  0
SECTION
  2
HEADER
  9
$ACADVER
  1
AC1009
  9
$MEASUREMENT
 70
     1
  0
ENDSEC
  0
SECTION
  2
ENTITIES
  0
LWPOLYLINE
  8
0
 62
7
 90
5
 70
1
 10
6.310000
 20
16.991563
 10
6.808437
 20
16.991563
 10
6.808437
 20
18.088437
 10
5.811562
 20
18.088437
 10
5.811562
 20
16.991563
  0
LWPOLYLINE
  8
0
 62
7
 90
5
 70
1
 10
6.310000
 20
15.291562
 10
6.808437
 20
15.291562
 10
6.808437
 20
16.388437
 10
5.811562
 20
16.388437
 10
5.811562
 20
15.291562
  0
LWPOLYLINE
  8
0
 62
7
 90
5
 70
1
 10
13.939562
 20
7.191400
 10
13.939562
 20
6.692963
 10
15.036437
 20
6.692963
 10
15.036437
 20
7.689837
 10
13.939562
 20
7.689837
  0
LWPOLYLINE
  8
0
 62
7
 90
5
 70
1
 10
12.239562
 20
7.191400
 10
12.239562
 20
6.692963
 10
13.336438
 20
6.692963
 10
13.336438
 20
7.689837
 10
12.239562
 20
7.689837
  0
LWPOLYLINE
  8
0
 62
7
 90
5
 70
1
 10
25.270000
 20
18.807563
 10
25.768438
 20
18.807563
 10
25.768438
 20
19.904438
 10
24.771562
 20
19.904438
 10
24.771562
 20
18.807563
  0
LWPOLYLINE
  8
0
 62
7
 90
5
 70
1
 10
25.270000
 20
17.107563
 10
25.768438
 20
17.107563
 10
25.768438
 20
18.204437
 10
24.771562
 20
18.204437
 10
24.771562
 20
17.107563
  0
LWPOLYLINE
  8
0
 62
7
 90
5
 70
1
 10
37.590000
 20
25.138437
 10
37.091563
 20
25.138437
 10
37.091563
 20
24.041563
 10
38.088438
 20
24.041563
 10
38.088438
 20
25.138437
  0
LWPOLYLINE
  8
0
 62
7
 90
5
 70
1
 10
37.590000
 20
26.838437
 10
37.091563
 20
26.838437
 10
37.091563
 20
25.741563
 10
38.088438
 20
25.741563
 10
38.088438
 20
26.838437
  0
LWPOLYLINE
  8
0
 62
7
 90
5
 70
1
 10
57.780000
 20
12.392437
 10
57.281562
 20
12.392437
 10
57.281562
 20
11.295562
 10
58.278438
 20
11.295562
 10
58.278438
 20
12.392437
  0
LWPOLYLINE
  8
0
 62
7
 90
5
 70
1
 10
57.780000
 20
14.092438
 10
57.281562
 20
14.092438
 10
57.281562
 20
12.995563
 10
58.278438
 20
12.995563
 10
58.278438
 20
14.092438
  0
LWPOLYLINE
  8
0
 62
7
 90
5
 70
1
 10
52.497563
 20
10.056000
 10
52.497563
 20
9.557562
 10
53.594437
 20
9.557562
 10
53.594437
 20
10.554437
 10
52.497563
 20
10.554437
  0
LWPOLYLINE
  8
0
 62
7
 90
5
 70
1
 10
50.797562
 20
10.056000
 10
50.797562
 20
9.557562
 10
51.894437
 20
9.557562
 10
51.894437
 20
10.554437
 10
50.797562
 20
10.554437
  0
LWPOLYLINE
  8
0
 62
7
 90
5
 70
1
 10
57.096000
 20
19.284437
 10
56.597562
 20
19.284437
 10
56.597562
 20
18.187563
 10
57.594437
 20
18.187563
 10
57.594437
 20
19.284437
  0
LWPOLYLINE
  8
0
 62
7
 90
5
 70
1
 10
57.096000
 20
20.984437
 10
56.597562
 20
20.984437
 10
56.597562
 20
19.887563
 10
57.594437
 20
19.887563
 10
57.594437
 20
20.984437
  0
LWPOLYLINE
  8
0
 62
7
 90
5
 70
1
 10
44.092437
 20
17.902000
 10
44.092437
 20
18.400438
 10
42.995562
 20
18.400438
 10
42.995562
 20
17.403562
 10
44.092437
 20
17.403562
  0
LWPOLYLINE
  8
0
 62
7
 90
5
 70
1
 10
45.792437
 20
17.902000
 10
45.792437
 20
18.400438
 10
44.695563
 20
18.400438
 10
44.695563
 20
17.403562
 10
45.792437
 20
17.403562
  0
LWPOLYLINE
  8
0
 62
7
 90
5
 70
1
 10
36.638438
 20
14.796000
 10
36.638438
 20
15.294437
 10
35.541563
 20
15.294437
 10
35.541563
 20
14.297562
 10
36.638438
 20
14.297562
  0
LWPOLYLINE
  8
0
 62
7
 90
5
 70
1
 10
38.338437
 20
14.796000
 10
38.338437
 20
15.294437
 10
37.241563
 20
15.294437
 10
37.241563
 20
14.297562
 10
38.338437
 20
14.297562
  0
LWPOLYLINE
  8
0
 62
7
 90
5
 70
1
 10
7.790000
 20
6.761563
 10
8.488437
 20
6.761563
 10
8.488437
 20
9.758437
 10
7.091563
 20
9.758437
 10
7.091563
 20
6.761563
  0
LWPOLYLINE
  8
0
 62
7
 90
5
 70
1
 10
7.790000
 20
11.561563
 10
8.488437
 20
11.561563
 10
8.488437
 20
14.558438
 10
7.091563
 20
14.558438
 10
7.091563
 20
11.561563
  0
LWPOLYLINE
  8
0
 62
7
 90
5
 70
1
 10
24.630000
 20
7.421562
 10
24.953437
 20
7.421562
 10
24.953437
 20
9.618437
 10
24.306562
 20
9.618437
 10
24.306562
 20
7.421562
  0
LWPOLYLINE
  8
0
 62
7
 90
5
 70
1
 10
24.630000
 20
11.121562
 10
24.953437
 20
11.121562
 10
24.953437
 20
13.318438
 10
24.306562
 20
13.318438
 10
24.306562
 20
11.121562
  0
LWPOLYLINE
  8
0
 62
7
 90
5
 70
1
 10
10.864438
 20
26.602000
 10
10.864438
 20
27.300438
 10
9.267563
 20
27.300438
 10
9.267563
 20
25.903562
 10
10.864438
 20
25.903562
  0
LWPOLYLINE
  8
0
 62
7
 90
5
 70
1
 10
10.864438
 20
29.402000
 10
10.864438
 20
30.100438
 10
9.267563
 20
30.100438
 10
9.267563
 20
28.703563
 10
10.864438
 20
28.703563
  0
LWPOLYLINE
  8
0
 62
7
 90
5
 70
1
 10
41.520038
 20
15.019600
 10
41.520038
 20
15.718038
 10
39.923163
 20
15.718038
 10
39.923163
 20
14.321162
 10
41.520038
 20
14.321162
  0
LWPOLYLINE
  8
0
 62
7
 90
5
 70
1
 10
41.520038
 20
17.819600
 10
41.520038
 20
18.518038
 10
39.923163
 20
18.518038
 10
39.923163
 20
17.121163
 10
41.520038
 20
17.121163
  0
LWPOLYLINE
  8
0
 62
7
 90
5
 70
1
 10
53.106000
 20
16.532438
 10
52.407563
 20
16.532438
 10
52.407563
 20
14.935562
 10
53.804437
 20
14.935562
 10
53.804437
 20
16.532438
  0
LWPOLYLINE
  8
0
 62
7
 90
5
 70
1
 10
50.306000
 20
16.532438
 10
49.607563
 20
16.532438
 10
49.607563
 20
14.935562
 10
51.004437
 20
14.935562
 10
51.004437
 20
16.532438
  0
LWPOLYLINE
  8
0
 62
7
 90
5
 70
1
 10
26.398438
 20
23.504000
 10
26.398438
 20
23.827438
 10
24.201563
 20
23.827438
 10
24.201563
 20
23.180563
 10
26.398438
 20
23.180563
  0
LWPOLYLINE
  8
0
 62
7
 90
5
 70
1
 10
22.698438
 20
23.504000
 10
22.698438
 20
23.827438
 10
20.501563
 20
23.827438
 10
20.501563
 20
23.180563
 10
22.698438
 20
23.180563
  0
LWPOLYLINE
  8
0
 62
7
 90
5
 70
1
 10
47.526000
 20
26.786438
 10
47.227563
 20
26.786438
 10
47.227563
 20
25.789562
 10
47.824438
 20
25.789562
 10
47.824438
 20
26.786438
  0
LWPOLYLINE
  8
0
 62
7
 90
5
 70
1
 10
47.526000
 20
28.986438
 10
47.227563
 20
28.986438
 10
47.227563
 20
27.989562
 10
47.824438
 20
27.989562
 10
47.824438
 20
28.986438
  0
LWPOLYLINE
  8
0
 62
7
 90
5
 70
1
 10
14.260000
 20
19.866563
 10
15.358438
 20
19.866563
 10
15.358438
 20
20.463437
 10
13.161562
 20
20.463437
 10
13.161562
 20
19.866563
  0
LWPOLYLINE
  8
0
 62
7
 90
5
 70
1
 10
14.260000
 20
18.596563
 10
15.358438
 20
18.596563
 10
15.358438
 20
19.193437
 10
13.161562
 20
19.193437
 10
13.161562
 20
18.596563
  0
LWPOLYLINE
  8
0
 62
7
 90
5
 70
1
 10
14.260000
 20
17.326563
 10
15.358438
 20
17.326563
 10
15.358438
 20
17.923437
 10
13.161562
 20
17.923437
 10
13.161562
 20
17.326563
  0
LWPOLYLINE
  8
0
 62
7
 90
5
 70
1
 10
14.260000
 20
16.056563
 10
15.358438
 20
16.056563
 10
15.358438
 20
16.653437
 10
13.161562
 20
16.653437
 10
13.161562
 20
16.056563
  0
LWPOLYLINE
  8
0
 62
7
 90
5
 70
1
 10
19.460000
 20
16.056563
 10
20.558438
 20
16.056563
 10
20.558438
 20
16.653437
 10
18.361563
 20
16.653437
 10
18.361563
 20
16.056563
  0
LWPOLYLINE
  8
0
 62
7
 90
5
 70
1
 10
19.460000
 20
17.326563
 10
20.558438
 20
17.326563
 10
20.558438
 20
17.923437
 10
18.361563
 20
17.923437
 10
18.361563
 20
17.326563
  0
LWPOLYLINE
  8
0
 62
7
 90
5
 70
1
 10
19.460000
 20
18.596563
 10
20.558438
 20
18.596563
 10
20.558438
 20
19.193437
 10
18.361563
 20
19.193437
 10
18.361563
 20
18.596563
  0
LWPOLYLINE
  8
0
 62
7
 90
5
 70
1
 10
19.460000
 20
19.866563
 10
20.558438
 20
19.866563
 10
20.558438
 20
20.463437
 10
18.361563
 20
20.463437
 10
18.361563
 20
19.866563
  0
LWPOLYLINE
  8
0
 62
7
 90
5
 70
1
 10
32.686000
 20
24.019562
 10
33.384437
 20
24.019562
 10
33.384437
 20
25.016438
 10
31.987562
 20
25.016438
 10
31.987562
 20
24.019562
  0
LWPOLYLINE
  8
0
 62
7
 90
5
 70
1
 10
32.686000
 20
22.119562
 10
33.384437
 20
22.119562
 10
33.384437
 20
23.116437
 10
31.987562
 20
23.116437
 10
31.987562
 20
22.119562
  0
LWPOLYLINE
  8
0
 62
7
 90
5
 70
1
 10
34.886000
 20
23.069562
 10
35.584437
 20
23.069562
 10
35.584437
 20
24.066438
 10
34.187563
 20
24.066438
 10
34.187563
 20
23.069562
  0
LWPOLYLINE
  8
0
 62
7
 90
5
 70
1
 10
54.206000
 20
19.315437
 10
53.107563
 20
19.315437
 10
53.107563
 20
18.718563
 10
55.304438
 20
18.718563
 10
55.304438
 20
19.315437
  0
LWPOLYLINE
  8
0
 62
7
 90
5
 70
1
 10
54.206000
 20
20.585437
 10
53.107563
 20
20.585437
 10
53.107563
 20
19.988563
 10
55.304438
 20
19.988563
 10
55.304438
 20
20.585437
  0
LWPOLYLINE
  8
0
 62
7
 90
5
 70
1
 10
54.206000
 20
21.855437
 10
53.107563
 20
21.855437
 10
53.107563
 20
21.258563
 10
55.304438
 20
21.258563
 10
55.304438
 20
21.855437
  0
LWPOLYLINE
  8
0
 62
7
 90
5
 70
1
 10
54.206000
 20
23.125438
 10
53.107563
 20
23.125438
 10
53.107563
 20
22.528563
 10
55.304438
 20
22.528563
 10
55.304438
 20
23.125438
  0
LWPOLYLINE
  8
0
 62
7
 90
5
 70
1
 10
49.006000
 20
23.125438
 10
47.907562
 20
23.125438
 10
47.907562
 20
22.528563
 10
50.104438
 20
22.528563
 10
50.104438
 20
23.125438
  0
LWPOLYLINE
  8
0
 62
7
 90
5
 70
1
 10
49.006000
 20
21.855437
 10
47.907562
 20
21.855437
 10
47.907562
 20
21.258563
 10
50.104438
 20
21.258563
 10
50.104438
 20
21.855437
  0
LWPOLYLINE
  8
0
 62
7
 90
5
 70
1
 10
49.006000
 20
20.585437
 10
47.907562
 20
20.585437
 10
47.907562
 20
19.988563
 10
50.104438
 20
19.988563
 10
50.104438
 20
20.585437
  0
LWPOLYLINE
  8
0
 62
7
 90
5
 70
1
 10
49.006000
 20
19.315437
 10
47.907562
 20
19.315437
 10
47.907562
 20
18.718563
 10
50.104438
 20
18.718563
 10
50.104438
 20
19.315437
  0
LWPOLYLINE
  8
0
 62
7
 90
5
 70
1
 10
49.787562
 20
12.764000
 10
49.787562
 20
12.065562
 10
50.784438
 20
12.065562
 10
50.784438
 20
13.462438
 10
49.787562
 20
13.462438
  0
LWPOLYLINE
  8
0
 62
7
 90
5
 70
1
 10
48.837562
 20
10.564000
 10
48.837562
 20
9.865562
 10
49.834437
 20
9.865562
 10
49.834437
 20
11.262438
 10
48.837562
 20
11.262438
  0
LWPOLYLINE
  8
0
 62
7
 90
5
 70
1
 10
47.887563
 20
12.764000
 10
47.887563
 20
12.065562
 10
48.884438
 20
12.065562
 10
48.884438
 20
13.462438
 10
47.887563
 20
13.462438
  0
LWPOLYLINE
  8
0
 62
7
 90
5
 70
1
 10
23.171563
 20
15.720000
 10
23.171563
 20
15.221563
 10
24.268437
 20
15.221563
 10
24.268437
 20
16.218438
 10
23.171563
 20
16.218438
  0
LWPOLYLINE
  8
0
 62
7
 90
5
 70
1
 10
21.471563
 20
15.720000
 10
21.471563
 20
15.221563
 10
22.568437
 20
15.221563
 10
22.568437
 20
16.218438
 10
21.471563
 20
16.218438
  0
LWPOLYLINE
  8
0
 62
7
 90
5
 70
1
 10
8.610000
 20
16.328437
 10
8.111562
 20
16.328437
 10
8.111562
 20
15.231562
 10
9.108437
 20
15.231562
 10
9.108437
 20
16.328437
  0
LWPOLYLINE
  8
0
 62
7
 90
5
 70
1
 10
8.610000
 20
18.028437
 10
8.111562
 20
18.028437
 10
8.111562
 20
16.931563
 10
9.108437
 20
16.931563
 10
9.108437
 20
18.028437
  0
LWPOLYLINE
  8
0
 62
7
 90
5
 70
1
 10
15.415563
 20
22.390000
 10
15.415563
 20
21.891562
 10
16.512438
 20
21.891562
 10
16.512438
 20
22.888438
 10
15.415563
 20
22.888438
  0
LWPOLYLINE
  8
0
 62
7
 90
5
 70
1
 10
13.715562
 20
22.390000
 10
13.715562
 20
21.891562
 10
14.812437
 20
21.891562
 10
14.812437
 20
22.888438
 10
13.715562
 20
22.888438
  0
LWPOLYLINE
  8
0
 62
7
 90
5
 70
1
 10
29.804000
 20
22.983563
 10
30.302437
 20
22.983563
 10
30.302437
 20
24.080437
 10
29.305562
 20
24.080437
 10
29.305562
 20
22.983563
  0
LWPOLYLINE
  8
0
 62
7
 90
5
 70
1
 10
29.804000
 20
21.283563
 10
30.302437
 20
21.283563
 10
30.302437
 20
22.380437
 10
29.305562
 20
22.380437
 10
29.305562
 20
21.283563
  0
LWPOLYLINE
  8
0
 62
7
 90
5
 70
1
 10
29.675000
 20
25.815837
 10
29.176562
 20
25.815837
 10
29.176562
 20
24.718962
 10
30.173438
 20
24.718962
 10
30.173438
 20
25.815837
  0
LWPOLYLINE
  8
0
 62
7
 90
5
 70
1
 10
29.675000
 20
27.515837
 10
29.176562
 20
27.515837
 10
29.176562
 20
26.418963
 10
30.173438
 20
26.418963
 10
30.173438
 20
27.515837
  0
LWPOLYLINE
  8
0
 62
7
 90
5
 70
1
 10
37.429563
 20
21.512000
 10
37.429563
 20
21.013562
 10
38.526438
 20
21.013562
 10
38.526438
 20
22.010438
 10
37.429563
 20
22.010438
  0
LWPOLYLINE
  8
0
 62
7
 90
5
 70
1
 10
35.729563
 20
21.512000
 10
35.729563
 20
21.013562
 10
36.826437
 20
21.013562
 10
36.826437
 20
22.010438
 10
35.729563
 20
22.010438
  0
LWPOLYLINE
  8
0
 62
7
 90
5
 70
1
 10
34.242362
 20
26.912000
 10
34.242362
 20
26.413562
 10
35.339237
 20
26.413562
 10
35.339237
 20
27.410438
 10
34.242362
 20
27.410438
  0
LWPOLYLINE
  8
0
 62
7
 90
5
 70
1
 10
32.542363
 20
26.912000
 10
32.542363
 20
26.413562
 10
33.639238
 20
26.413562
 10
33.639238
 20
27.410438
 10
32.542363
 20
27.410438
  0
LWPOLYLINE
  8
0
 62
7
 90
5
 70
1
 10
56.006000
 20
12.370437
 10
55.507562
 20
12.370437
 10
55.507562
 20
11.273562
 10
56.504438
 20
11.273562
 10
56.504438
 20
12.370437
  0
LWPOLYLINE
  8
0
 62
7
 90
5
 70
1
 10
56.006000
 20
14.070438
 10
55.507562
 20
14.070438
 10
55.507562
 20
12.973562
 10
56.504438
 20
12.973562
 10
56.504438
 20
14.070438
  0
LWPOLYLINE
  8
0
 62
7
 90
5
 70
1
 10
54.246000
 20
12.422438
 10
53.747563
 20
12.422438
 10
53.747563
 20
11.325563
 10
54.744438
 20
11.325563
 10
54.744438
 20
12.422438
  0
LWPOLYLINE
  8
0
 62
7
 90
5
 70
1
 10
54.246000
 20
14.122438
 10
53.747563
 20
14.122438
 10
53.747563
 20
13.025562
 10
54.744438
 20
13.025562
 10
54.744438
 20
14.122438
  0
LWPOLYLINE
  8
0
 62
7
 90
5
 70
1
 10
56.270000
 20
15.732437
 10
55.771563
 20
15.732437
 10
55.771563
 20
14.635562
 10
56.768438
 20
14.635562
 10
56.768438
 20
15.732437
  0
LWPOLYLINE
  8
0
 62
7
 90
5
 70
1
 10
56.270000
 20
17.432437
 10
55.771563
 20
17.432437
 10
55.771563
 20
16.335563
 10
56.768438
 20
16.335563
 10
56.768438
 20
17.432437
  0
LWPOLYLINE
  8
0
 62
7
 90
5
 70
1
 10
45.043563
 20
15.390000
 10
45.043563
 20
14.891563
 10
46.140437
 20
14.891563
 10
46.140437
 20
15.888438
 10
45.043563
 20
15.888438
  0
LWPOLYLINE
  8
0
 62
7
 90
5
 70
1
 10
43.343563
 20
15.390000
 10
43.343563
 20
14.891563
 10
44.440438
 20
14.891563
 10
44.440438
 20
15.888438
 10
43.343563
 20
15.888438
  0
LWPOLYLINE
  8
0
 62
7
 90
5
 70
1
 10
35.866000
 20
17.298437
 10
35.367562
 20
17.298437
 10
35.367562
 20
16.201563
 10
36.364438
 20
16.201563
 10
36.364438
 20
17.298437
  0
LWPOLYLINE
  8
0
 62
7
 90
5
 70
1
 10
35.866000
 20
18.998437
 10
35.367562
 20
18.998437
 10
35.367562
 20
17.901563
 10
36.364438
 20
17.901563
 10
36.364438
 20
18.998437
  0
LWPOLYLINE
  8
0
 62
7
 90
5
 70
1
 10
22.810000
 20
18.204437
 10
22.311562
 20
18.204437
 10
22.311562
 20
17.107563
 10
23.308438
 20
17.107563
 10
23.308438
 20
18.204437
  0
LWPOLYLINE
  8
0
 62
7
 90
5
 70
1
 10
22.810000
 20
19.904438
 10
22.311562
 20
19.904438
 10
22.311562
 20
18.807563
 10
23.308438
 20
18.807563
 10
23.308438
 20
19.904438
  0
LWPOLYLINE
  8
0
 62
7
 90
5
 70
1
 10
29.690000
 20
18.792437
 10
29.191562
 20
18.792437
 10
29.191562
 20
17.695563
 10
30.188438
 20
17.695563
 10
30.188438
 20
18.792437
  0
LWPOLYLINE
  8
0
 62
7
 90
5
 70
1
 10
29.690000
 20
20.492437
 10
29.191562
 20
20.492437
 10
29.191562
 20
19.395563
 10
30.188438
 20
19.395563
 10
30.188438
 20
20.492437
  0
LWPOLYLINE
  8
0
 62
7
 90
5
 70
1
 10
10.500000
 20
18.538437
 10
10.001563
 20
18.538437
 10
10.001563
 20
17.441562
 10
10.998437
 20
17.441562
 10
10.998437
 20
18.538437
  0
LWPOLYLINE
  8
0
 62
7
 90
5
 70
1
 10
10.500000
 20
20.238437
 10
10.001563
 20
20.238437
 10
10.001563
 20
19.141563
 10
10.998437
 20
19.141563
 10
10.998437
 20
20.238437
  0
LWPOLYLINE
  8
0
 62
7
 90
5
 70
1
 10
6.255000
 20
22.321563
 10
6.853438
 20
22.321563
 10
6.853438
 20
23.518438
 10
5.656562
 20
23.518438
 10
5.656562
 20
22.321563
  0
LWPOLYLINE
  8
0
 62
7
 90
5
 70
1
 10
9.580000
 20
21.171563
 10
10.378438
 20
21.171563
 10
10.378438
 20
22.668438
 10
8.781562
 20
22.668438
 10
8.781562
 20
21.171563
  0
LWPOLYLINE
  8
0
 62
7
 90
5
 70
1
 10
6.255000
 20
20.321563
 10
6.853438
 20
20.321563
 10
6.853438
 20
21.518438
 10
5.656562
 20
21.518438
 10
5.656562
 20
20.321563
  0
LWPOLYLINE
  8
0
 62
7
 90
5
 70
1
 10
20.133400
 20
9.723637
 10
19.118963
 20
9.723637
 10
19.118963
 20
9.066363
 10
21.147838
 20
9.066363
 10
21.147838
 20
9.723637
  0
LWPOLYLINE
  8
0
 62
7
 90
5
 70
1
 10
20.133400
 20
10.993637
 10
19.118963
 20
10.993637
 10
19.118963
 20
10.336362
 10
21.147838
 20
10.336362
 10
21.147838
 20
10.993637
  0
LWPOLYLINE
  8
0
 62
7
 90
5
 70
1
 10
20.133400
 20
12.263637
 10
19.118963
 20
12.263637
 10
19.118963
 20
11.606363
 10
21.147838
 20
11.606363
 10
21.147838
 20
12.263637
  0
LWPOLYLINE
  8
0
 62
7
 90
5
 70
1
 10
20.133400
 20
13.533637
 10
19.118963
 20
13.533637
 10
19.118963
 20
12.876363
 10
21.147838
 20
12.876363
 10
21.147838
 20
13.533637
  0
LWPOLYLINE
  8
0
 62
7
 90
5
 70
1
 10
13.986600
 20
13.533637
 10
12.972162
 20
13.533637
 10
12.972162
 20
12.876363
 10
15.001037
 20
12.876363
 10
15.001037
 20
13.533637
  0
LWPOLYLINE
  8
0
 62
7
 90
5
 70
1
 10
13.986600
 20
12.263637
 10
12.972162
 20
12.263637
 10
12.972162
 20
11.606363
 10
15.001037
 20
11.606363
 10
15.001037
 20
12.263637
  0
LWPOLYLINE
  8
0
 62
7
 90
5
 70
1
 10
13.986600
 20
10.993637
 10
12.972162
 20
10.993637
 10
12.972162
 20
10.336362
 10
15.001037
 20
10.336362
 10
15.001037
 20
10.993637
  0
LWPOLYLINE
  8
0
 62
7
 90
5
 70
1
 10
13.986600
 20
9.723637
 10
12.972162
 20
9.723637
 10
12.972162
 20
9.066363
 10
15.001037
 20
9.066363
 10
15.001037
 20
9.723637
  0
ENDSEC
  0
EOF
