  0
SECTION
  2
HEADER
  9
$ACADVER
  1
AC1009
  9
$MEASUREMENT
 70
     1
  0
ENDSEC
  0
SECTION
  2
ENTITIES
  0
LWPOLYLINE
  8
0
 62
7
 90
5
 70
1
 10
20.879638
 20
28.348872
 10
20.381200
 20
28.348872
 10
20.381200
 20
27.251997
 10
21.378075
 20
27.251997
 10
21.378075
 20
28.348872
  0
LWPOLYLINE
  8
0
 62
7
 90
5
 70
1
 10
20.879638
 20
30.048872
 10
20.381200
 20
30.048872
 10
20.381200
 20
28.951997
 10
21.378075
 20
28.951997
 10
21.378075
 20
30.048872
  0
LWPOLYLINE
  8
0
 62
7
 90
5
 70
1
 10
21.012616
 20
56.203969
 10
20.514178
 20
56.203969
 10
20.514178
 20
55.107094
 10
21.511053
 20
55.107094
 10
21.511053
 20
56.203969
  0
LWPOLYLINE
  8
0
 62
7
 90
5
 70
1
 10
21.012616
 20
57.903969
 10
20.514178
 20
57.903969
 10
20.514178
 20
56.807094
 10
21.511053
 20
56.807094
 10
21.511053
 20
57.903969
  0
LWPOLYLINE
  8
0
 62
7
 90
5
 70
1
 10
17.644362
 20
50.798316
 10
17.145925
 20
50.798316
 10
17.145925
 20
49.701441
 10
18.142800
 20
49.701441
 10
18.142800
 20
50.798316
  0
LWPOLYLINE
  8
0
 62
7
 90
5
 70
1
 10
17.644362
 20
52.498316
 10
17.145925
 20
52.498316
 10
17.145925
 20
51.401441
 10
18.142800
 20
51.401441
 10
18.142800
 20
52.498316
  0
LWPOLYLINE
  8
0
 62
7
 90
5
 70
1
 10
15.616194
 20
50.789097
 10
15.117756
 20
50.789097
 10
15.117756
 20
49.692222
 10
16.114631
 20
49.692222
 10
16.114631
 20
50.789097
  0
LWPOLYLINE
  8
0
 62
7
 90
5
 70
1
 10
15.616194
 20
52.489097
 10
15.117756
 20
52.489097
 10
15.117756
 20
51.392222
 10
16.114631
 20
51.392222
 10
16.114631
 20
52.489097
  0
LWPOLYLINE
  8
0
 62
7
 90
5
 70
1
 10
42.735897
 20
14.629153
 10
42.412459
 20
14.629153
 10
42.412459
 20
12.432278
 10
43.059334
 20
12.432278
 10
43.059334
 20
14.629153
  0
LWPOLYLINE
  8
0
 62
7
 90
5
 70
1
 10
42.735897
 20
10.929153
 10
42.412459
 20
10.929153
 10
42.412459
 20
8.732278
 10
43.059334
 20
8.732278
 10
43.059334
 20
10.929153
  0
LWPOLYLINE
  8
0
 62
7
 90
5
 70
1
 10
9.207819
 20
20.027063
 10
9.706256
 20
20.027063
 10
9.706256
 20
21.123938
 10
8.709381
 20
21.123938
 10
8.709381
 20
20.027063
  0
LWPOLYLINE
  8
0
 62
7
 90
5
 70
1
 10
9.207819
 20
18.327063
 10
9.706256
 20
18.327063
 10
9.706256
 20
19.423937
 10
8.709381
 20
19.423937
 10
8.709381
 20
18.327063
  0
LWPOLYLINE
  8
0
 62
7
 90
5
 70
1
 10
44.588916
 20
16.712638
 10
45.087353
 20
16.712638
 10
45.087353
 20
17.809513
 10
44.090478
 20
17.809513
 10
44.090478
 20
16.712638
  0
LWPOLYLINE
  8
0
 62
7
 90
5
 70
1
 10
44.588916
 20
15.012638
 10
45.087353
 20
15.012638
 10
45.087353
 20
16.109513
 10
44.090478
 20
16.109513
 10
44.090478
 20
15.012638
  0
LWPOLYLINE
  8
0
 62
7
 90
5
 70
1
 10
42.227819
 20
20.027063
 10
42.726256
 20
20.027063
 10
42.726256
 20
21.123938
 10
41.729381
 20
21.123938
 10
41.729381
 20
20.027063
  0
LWPOLYLINE
  8
0
 62
7
 90
5
 70
1
 10
42.227819
 20
18.327063
 10
42.726256
 20
18.327063
 10
42.726256
 20
19.423937
 10
41.729381
 20
19.423937
 10
41.729381
 20
18.327063
  0
LWPOLYLINE
  8
0
 62
7
 90
5
 70
1
 10
53.899637
 20
28.348872
 10
53.401200
 20
28.348872
 10
53.401200
 20
27.251997
 10
54.398075
 20
27.251997
 10
54.398075
 20
28.348872
  0
LWPOLYLINE
  8
0
 62
7
 90
5
 70
1
 10
53.899637
 20
30.048872
 10
53.401200
 20
30.048872
 10
53.401200
 20
28.951997
 10
54.398075
 20
28.951997
 10
54.398075
 20
30.048872
  0
LWPOLYLINE
  8
0
 62
7
 90
5
 70
1
 10
54.032616
 20
56.203969
 10
53.534178
 20
56.203969
 10
53.534178
 20
55.107094
 10
54.531053
 20
55.107094
 10
54.531053
 20
56.203969
  0
LWPOLYLINE
  8
0
 62
7
 90
5
 70
1
 10
54.032616
 20
57.903969
 10
53.534178
 20
57.903969
 10
53.534178
 20
56.807094
 10
54.531053
 20
56.807094
 10
54.531053
 20
57.903969
  0
LWPOLYLINE
  8
0
 62
7
 90
5
 70
1
 10
50.664363
 20
50.798316
 10
50.165925
 20
50.798316
 10
50.165925
 20
49.701441
 10
51.162800
 20
49.701441
 10
51.162800
 20
50.798316
  0
LWPOLYLINE
  8
0
 62
7
 90
5
 70
1
 10
50.664363
 20
52.498316
 10
50.165925
 20
52.498316
 10
50.165925
 20
51.401441
 10
51.162800
 20
51.401441
 10
51.162800
 20
52.498316
  0
LWPOLYLINE
  8
0
 62
7
 90
5
 70
1
 10
48.636194
 20
50.789097
 10
48.137756
 20
50.789097
 10
48.137756
 20
49.692222
 10
49.134631
 20
49.692222
 10
49.134631
 20
50.789097
  0
LWPOLYLINE
  8
0
 62
7
 90
5
 70
1
 10
48.636194
 20
52.489097
 10
48.137756
 20
52.489097
 10
48.137756
 20
51.392222
 10
49.134631
 20
51.392222
 10
49.134631
 20
52.489097
  0
LWPOLYLINE
  8
0
 62
7
 90
5
 70
1
 10
75.755897
 20
14.629153
 10
75.432459
 20
14.629153
 10
75.432459
 20
12.432278
 10
76.079334
 20
12.432278
 10
76.079334
 20
14.629153
  0
LWPOLYLINE
  8
0
 62
7
 90
5
 70
1
 10
75.755897
 20
10.929153
 10
75.432459
 20
10.929153
 10
75.432459
 20
8.732278
 10
76.079334
 20
8.732278
 10
76.079334
 20
10.929153
  0
LWPOLYLINE
  8
0
 62
7
 90
5
 70
1
 10
77.608916
 20
16.712638
 10
78.107353
 20
16.712638
 10
78.107353
 20
17.809513
 10
77.110478
 20
17.809513
 10
77.110478
 20
16.712638
  0
LWPOLYLINE
  8
0
 62
7
 90
5
 70
1
 10
77.608916
 20
15.012638
 10
78.107353
 20
15.012638
 10
78.107353
 20
16.109513
 10
77.110478
 20
16.109513
 10
77.110478
 20
15.012638
  0
LWPOLYLINE
  8
0
 62
7
 90
5
 70
1
 10
75.247819
 20
20.027063
 10
75.746256
 20
20.027063
 10
75.746256
 20
21.123938
 10
74.749381
 20
21.123938
 10
74.749381
 20
20.027063
  0
LWPOLYLINE
  8
0
 62
7
 90
5
 70
1
 10
75.247819
 20
18.327063
 10
75.746256
 20
18.327063
 10
75.746256
 20
19.423937
 10
74.749381
 20
19.423937
 10
74.749381
 20
18.327063
  0
LWPOLYLINE
  8
0
 62
7
 90
5
 70
1
 10
86.919637
 20
28.348872
 10
86.421200
 20
28.348872
 10
86.421200
 20
27.251997
 10
87.418075
 20
27.251997
 10
87.418075
 20
28.348872
  0
LWPOLYLINE
  8
0
 62
7
 90
5
 70
1
 10
86.919637
 20
30.048872
 10
86.421200
 20
30.048872
 10
86.421200
 20
28.951997
 10
87.418075
 20
28.951997
 10
87.418075
 20
30.048872
  0
LWPOLYLINE
  8
0
 62
7
 90
5
 70
1
 10
87.052616
 20
56.203969
 10
86.554178
 20
56.203969
 10
86.554178
 20
55.107094
 10
87.551053
 20
55.107094
 10
87.551053
 20
56.203969
  0
LWPOLYLINE
  8
0
 62
7
 90
5
 70
1
 10
87.052616
 20
57.903969
 10
86.554178
 20
57.903969
 10
86.554178
 20
56.807094
 10
87.551053
 20
56.807094
 10
87.551053
 20
57.903969
  0
LWPOLYLINE
  8
0
 62
7
 90
5
 70
1
 10
83.684363
 20
50.798316
 10
83.185925
 20
50.798316
 10
83.185925
 20
49.701441
 10
84.182800
 20
49.701441
 10
84.182800
 20
50.798316
  0
LWPOLYLINE
  8
0
 62
7
 90
5
 70
1
 10
83.684363
 20
52.498316
 10
83.185925
 20
52.498316
 10
83.185925
 20
51.401441
 10
84.182800
 20
51.401441
 10
84.182800
 20
52.498316
  0
LWPOLYLINE
  8
0
 62
7
 90
5
 70
1
 10
81.656194
 20
50.789097
 10
81.157756
 20
50.789097
 10
81.157756
 20
49.692222
 10
82.154631
 20
49.692222
 10
82.154631
 20
50.789097
  0
LWPOLYLINE
  8
0
 62
7
 90
5
 70
1
 10
81.656194
 20
52.489097
 10
81.157756
 20
52.489097
 10
81.157756
 20
51.392222
 10
82.154631
 20
51.392222
 10
82.154631
 20
52.489097
  0
LWPOLYLINE
  8
0
 62
7
 90
5
 70
1
 10
9.715897
 20
14.629153
 10
9.392459
 20
14.629153
 10
9.392459
 20
12.432278
 10
10.039334
 20
12.432278
 10
10.039334
 20
14.629153
  0
LWPOLYLINE
  8
0
 62
7
 90
5
 70
1
 10
9.715897
 20
10.929153
 10
9.392459
 20
10.929153
 10
9.392459
 20
8.732278
 10
10.039334
 20
8.732278
 10
10.039334
 20
10.929153
  0
LWPOLYLINE
  8
0
 62
7
 90
5
 70
1
 10
11.568916
 20
16.712638
 10
12.067353
 20
16.712638
 10
12.067353
 20
17.809513
 10
11.070478
 20
17.809513
 10
11.070478
 20
16.712638
  0
LWPOLYLINE
  8
0
 62
7
 90
5
 70
1
 10
11.568916
 20
15.012638
 10
12.067353
 20
15.012638
 10
12.067353
 20
16.109513
 10
11.070478
 20
16.109513
 10
11.070478
 20
15.012638
  0
LWPOLYLINE
  8
0
 62
7
 90
5
 70
1
 10
9.224478
 20
16.732762
 10
9.722916
 20
16.732762
 10
9.722916
 20
17.829637
 10
8.726041
 20
17.829637
 10
8.726041
 20
16.732762
  0
LWPOLYLINE
  8
0
 62
7
 90
5
 70
1
 10
9.224478
 20
15.032763
 10
9.722916
 20
15.032763
 10
9.722916
 20
16.129638
 10
8.726041
 20
16.129638
 10
8.726041
 20
15.032763
  0
LWPOLYLINE
  8
0
 62
7
 90
5
 70
1
 10
19.906075
 20
50.568416
 10
19.906075
 20
51.066853
 10
18.809200
 20
51.066853
 10
18.809200
 20
50.069978
 10
19.906075
 20
50.069978
  0
LWPOLYLINE
  8
0
 62
7
 90
5
 70
1
 10
21.606075
 20
50.568416
 10
21.606075
 20
51.066853
 10
20.509200
 20
51.066853
 10
20.509200
 20
50.069978
 10
21.606075
 20
50.069978
  0
LWPOLYLINE
  8
0
 62
7
 90
5
 70
1
 10
42.244478
 20
16.732762
 10
42.742916
 20
16.732762
 10
42.742916
 20
17.829637
 10
41.746041
 20
17.829637
 10
41.746041
 20
16.732762
  0
LWPOLYLINE
  8
0
 62
7
 90
5
 70
1
 10
42.244478
 20
15.032763
 10
42.742916
 20
15.032763
 10
42.742916
 20
16.129638
 10
41.746041
 20
16.129638
 10
41.746041
 20
15.032763
  0
LWPOLYLINE
  8
0
 62
7
 90
5
 70
1
 10
52.926075
 20
50.568416
 10
52.926075
 20
51.066853
 10
51.829200
 20
51.066853
 10
51.829200
 20
50.069978
 10
52.926075
 20
50.069978
  0
LWPOLYLINE
  8
0
 62
7
 90
5
 70
1
 10
54.626075
 20
50.568416
 10
54.626075
 20
51.066853
 10
53.529200
 20
51.066853
 10
53.529200
 20
50.069978
 10
54.626075
 20
50.069978
  0
LWPOLYLINE
  8
0
 62
7
 90
5
 70
1
 10
75.264478
 20
16.732762
 10
75.762916
 20
16.732762
 10
75.762916
 20
17.829637
 10
74.766041
 20
17.829637
 10
74.766041
 20
16.732762
  0
LWPOLYLINE
  8
0
 62
7
 90
5
 70
1
 10
75.264478
 20
15.032763
 10
75.762916
 20
15.032763
 10
75.762916
 20
16.129638
 10
74.766041
 20
16.129638
 10
74.766041
 20
15.032763
  0
LWPOLYLINE
  8
0
 62
7
 90
5
 70
1
 10
85.946075
 20
50.568416
 10
85.946075
 20
51.066853
 10
84.849200
 20
51.066853
 10
84.849200
 20
50.069978
 10
85.946075
 20
50.069978
  0
LWPOLYLINE
  8
0
 62
7
 90
5
 70
1
 10
87.646075
 20
50.568416
 10
87.646075
 20
51.066853
 10
86.549200
 20
51.066853
 10
86.549200
 20
50.069978
 10
87.646075
 20
50.069978
  0
LWPOLYLINE
  8
0
 62
7
 90
5
 70
1
 10
23.854116
 20
21.761153
 10
23.854116
 20
21.262716
 10
24.950991
 20
21.262716
 10
24.950991
 20
22.259591
 10
23.854116
 20
22.259591
  0
LWPOLYLINE
  8
0
 62
7
 90
5
 70
1
 10
22.154116
 20
21.761153
 10
22.154116
 20
21.262716
 10
23.250991
 20
21.262716
 10
23.250991
 20
22.259591
 10
22.154116
 20
22.259591
  0
LWPOLYLINE
  8
0
 62
7
 90
5
 70
1
 10
23.842363
 20
23.850275
 10
23.842363
 20
23.351837
 10
24.939237
 20
23.351837
 10
24.939237
 20
24.348713
 10
23.842363
 20
24.348713
  0
LWPOLYLINE
  8
0
 62
7
 90
5
 70
1
 10
22.142363
 20
23.850275
 10
22.142363
 20
23.351837
 10
23.239237
 20
23.351837
 10
23.239237
 20
24.348713
 10
22.142363
 20
24.348713
  0
LWPOLYLINE
  8
0
 62
7
 90
5
 70
1
 10
20.907575
 20
22.603941
 10
21.406013
 20
22.603941
 10
21.406013
 20
23.700816
 10
20.409137
 20
23.700816
 10
20.409137
 20
22.603941
  0
LWPOLYLINE
  8
0
 62
7
 90
5
 70
1
 10
20.907575
 20
20.903941
 10
21.406013
 20
20.903941
 10
21.406013
 20
22.000816
 10
20.409137
 20
22.000816
 10
20.409137
 20
20.903941
  0
LWPOLYLINE
  8
0
 62
7
 90
5
 70
1
 10
56.874116
 20
21.761153
 10
56.874116
 20
21.262716
 10
57.970991
 20
21.262716
 10
57.970991
 20
22.259591
 10
56.874116
 20
22.259591
  0
LWPOLYLINE
  8
0
 62
7
 90
5
 70
1
 10
55.174116
 20
21.761153
 10
55.174116
 20
21.262716
 10
56.270991
 20
21.262716
 10
56.270991
 20
22.259591
 10
55.174116
 20
22.259591
  0
LWPOLYLINE
  8
0
 62
7
 90
5
 70
1
 10
20.866937
 20
25.202412
 10
20.368500
 20
25.202412
 10
20.368500
 20
24.105538
 10
21.365375
 20
24.105538
 10
21.365375
 20
25.202412
  0
LWPOLYLINE
  8
0
 62
7
 90
5
 70
1
 10
20.866937
 20
26.902412
 10
20.368500
 20
26.902412
 10
20.368500
 20
25.805537
 10
21.365375
 20
25.805537
 10
21.365375
 20
26.902412
  0
LWPOLYLINE
  8
0
 62
7
 90
5
 70
1
 10
56.862363
 20
23.850275
 10
56.862363
 20
23.351837
 10
57.959238
 20
23.351837
 10
57.959238
 20
24.348713
 10
56.862363
 20
24.348713
  0
LWPOLYLINE
  8
0
 62
7
 90
5
 70
1
 10
55.162363
 20
23.850275
 10
55.162363
 20
23.351837
 10
56.259237
 20
23.351837
 10
56.259237
 20
24.348713
 10
55.162363
 20
24.348713
  0
LWPOLYLINE
  8
0
 62
7
 90
5
 70
1
 10
53.927575
 20
22.603941
 10
54.426012
 20
22.603941
 10
54.426012
 20
23.700816
 10
53.429137
 20
23.700816
 10
53.429137
 20
22.603941
  0
LWPOLYLINE
  8
0
 62
7
 90
5
 70
1
 10
53.927575
 20
20.903941
 10
54.426012
 20
20.903941
 10
54.426012
 20
22.000816
 10
53.429137
 20
22.000816
 10
53.429137
 20
20.903941
  0
LWPOLYLINE
  8
0
 62
7
 90
5
 70
1
 10
53.886938
 20
25.202412
 10
53.388500
 20
25.202412
 10
53.388500
 20
24.105538
 10
54.385375
 20
24.105538
 10
54.385375
 20
25.202412
  0
LWPOLYLINE
  8
0
 62
7
 90
5
 70
1
 10
53.886938
 20
26.902412
 10
53.388500
 20
26.902412
 10
53.388500
 20
25.805537
 10
54.385375
 20
25.805537
 10
54.385375
 20
26.902412
  0
LWPOLYLINE
  8
0
 62
7
 90
5
 70
1
 10
89.894116
 20
21.761153
 10
89.894116
 20
21.262716
 10
90.990991
 20
21.262716
 10
90.990991
 20
22.259591
 10
89.894116
 20
22.259591
  0
LWPOLYLINE
  8
0
 62
7
 90
5
 70
1
 10
88.194116
 20
21.761153
 10
88.194116
 20
21.262716
 10
89.290991
 20
21.262716
 10
89.290991
 20
22.259591
 10
88.194116
 20
22.259591
  0
LWPOLYLINE
  8
0
 62
7
 90
5
 70
1
 10
89.882362
 20
23.850275
 10
89.882362
 20
23.351837
 10
90.979238
 20
23.351837
 10
90.979238
 20
24.348713
 10
89.882362
 20
24.348713
  0
LWPOLYLINE
  8
0
 62
7
 90
5
 70
1
 10
88.182362
 20
23.850275
 10
88.182362
 20
23.351837
 10
89.279238
 20
23.351837
 10
89.279238
 20
24.348713
 10
88.182362
 20
24.348713
  0
LWPOLYLINE
  8
0
 62
7
 90
5
 70
1
 10
86.947575
 20
22.603941
 10
87.446012
 20
22.603941
 10
87.446012
 20
23.700816
 10
86.449138
 20
23.700816
 10
86.449138
 20
22.603941
  0
LWPOLYLINE
  8
0
 62
7
 90
5
 70
1
 10
86.947575
 20
20.903941
 10
87.446012
 20
20.903941
 10
87.446012
 20
22.000816
 10
86.449138
 20
22.000816
 10
86.449138
 20
20.903941
  0
LWPOLYLINE
  8
0
 62
7
 90
5
 70
1
 10
86.906937
 20
25.202412
 10
86.408500
 20
25.202412
 10
86.408500
 20
24.105538
 10
87.405375
 20
24.105538
 10
87.405375
 20
25.202412
  0
LWPOLYLINE
  8
0
 62
7
 90
5
 70
1
 10
86.906937
 20
26.902412
 10
86.408500
 20
26.902412
 10
86.408500
 20
25.805537
 10
87.405375
 20
25.805537
 10
87.405375
 20
26.902412
  0
LWPOLYLINE
  8
0
 62
7
 90
5
 70
1
 10
21.002753
 20
40.771675
 10
20.304316
 20
40.771675
 10
20.304316
 20
39.974800
 10
21.701191
 20
39.974800
 10
21.701191
 20
40.771675
  0
LWPOLYLINE
  8
0
 62
7
 90
5
 70
1
 10
21.002753
 20
42.270675
 10
20.304316
 20
42.270675
 10
20.304316
 20
41.473800
 10
21.701191
 20
41.473800
 10
21.701191
 20
42.270675
  0
LWPOLYLINE
  8
0
 62
7
 90
5
 70
1
 10
21.002753
 20
43.769675
 10
20.304316
 20
43.769675
 10
20.304316
 20
42.972800
 10
21.701191
 20
42.972800
 10
21.701191
 20
43.769675
  0
LWPOLYLINE
  8
0
 62
7
 90
5
 70
1
 10
17.446753
 20
42.886675
 10
16.813316
 20
42.886675
 10
16.813316
 20
40.857800
 10
18.080191
 20
40.857800
 10
18.080191
 20
42.886675
  0
LWPOLYLINE
  8
0
 62
7
 90
5
 70
1
 10
54.022753
 20
40.771675
 10
53.324316
 20
40.771675
 10
53.324316
 20
39.974800
 10
54.721191
 20
39.974800
 10
54.721191
 20
40.771675
  0
LWPOLYLINE
  8
0
 62
7
 90
5
 70
1
 10
54.022753
 20
42.270675
 10
53.324316
 20
42.270675
 10
53.324316
 20
41.473800
 10
54.721191
 20
41.473800
 10
54.721191
 20
42.270675
  0
LWPOLYLINE
  8
0
 62
7
 90
5
 70
1
 10
54.022753
 20
43.769675
 10
53.324316
 20
43.769675
 10
53.324316
 20
42.972800
 10
54.721191
 20
42.972800
 10
54.721191
 20
43.769675
  0
LWPOLYLINE
  8
0
 62
7
 90
5
 70
1
 10
50.466753
 20
42.886675
 10
49.833316
 20
42.886675
 10
49.833316
 20
40.857800
 10
51.100191
 20
40.857800
 10
51.100191
 20
42.886675
  0
LWPOLYLINE
  8
0
 62
7
 90
5
 70
1
 10
87.042753
 20
40.771675
 10
86.344316
 20
40.771675
 10
86.344316
 20
39.974800
 10
87.741191
 20
39.974800
 10
87.741191
 20
40.771675
  0
LWPOLYLINE
  8
0
 62
7
 90
5
 70
1
 10
87.042753
 20
42.270675
 10
86.344316
 20
42.270675
 10
86.344316
 20
41.473800
 10
87.741191
 20
41.473800
 10
87.741191
 20
42.270675
  0
LWPOLYLINE
  8
0
 62
7
 90
5
 70
1
 10
87.042753
 20
43.769675
 10
86.344316
 20
43.769675
 10
86.344316
 20
42.972800
 10
87.741191
 20
42.972800
 10
87.741191
 20
43.769675
  0
LWPOLYLINE
  8
0
 62
7
 90
5
 70
1
 10
83.486753
 20
42.886675
 10
82.853316
 20
42.886675
 10
82.853316
 20
40.857800
 10
84.120191
 20
40.857800
 10
84.120191
 20
42.886675
  0
LWPOLYLINE
  8
0
 62
7
 90
5
 70
1
 10
54.000712
 20
59.383481
 10
53.502275
 20
59.383481
 10
53.502275
 20
58.286606
 10
54.499150
 20
58.286606
 10
54.499150
 20
59.383481
  0
LWPOLYLINE
  8
0
 62
7
 90
5
 70
1
 10
54.000712
 20
61.083481
 10
53.502275
 20
61.083481
 10
53.502275
 20
59.986606
 10
54.499150
 20
59.986606
 10
54.499150
 20
61.083481
  0
LWPOLYLINE
  8
0
 62
7
 90
5
 70
1
 10
20.980712
 20
59.383481
 10
20.482275
 20
59.383481
 10
20.482275
 20
58.286606
 10
21.479150
 20
58.286606
 10
21.479150
 20
59.383481
  0
LWPOLYLINE
  8
0
 62
7
 90
5
 70
1
 10
20.980712
 20
61.083481
 10
20.482275
 20
61.083481
 10
20.482275
 20
59.986606
 10
21.479150
 20
59.986606
 10
21.479150
 20
61.083481
  0
LWPOLYLINE
  8
0
 62
7
 90
5
 70
1
 10
87.020713
 20
59.383481
 10
86.522275
 20
59.383481
 10
86.522275
 20
58.286606
 10
87.519150
 20
58.286606
 10
87.519150
 20
59.383481
  0
LWPOLYLINE
  8
0
 62
7
 90
5
 70
1
 10
87.020713
 20
61.083481
 10
86.522275
 20
61.083481
 10
86.522275
 20
59.986606
 10
87.519150
 20
59.986606
 10
87.519150
 20
61.083481
  0
LWPOLYLINE
  8
0
 62
7
 90
5
 70
1
 10
16.551278
 20
7.794575
 10
15.892841
 20
7.794575
 10
15.892841
 20
6.477700
 10
17.209716
 20
6.477700
 10
17.209716
 20
7.794575
  0
LWPOLYLINE
  8
0
 62
7
 90
5
 70
1
 10
19.749716
 20
7.136138
 10
19.749716
 20
7.794575
 10
18.432841
 20
7.794575
 10
18.432841
 20
6.477700
 10
19.749716
 20
6.477700
  0
LWPOLYLINE
  8
0
 62
7
 90
5
 70
1
 10
22.289716
 20
7.136138
 10
22.289716
 20
7.794575
 10
20.972841
 20
7.794575
 10
20.972841
 20
6.477700
 10
22.289716
 20
6.477700
  0
LWPOLYLINE
  8
0
 62
7
 90
5
 70
1
 10
24.829716
 20
7.136138
 10
24.829716
 20
7.794575
 10
23.512841
 20
7.794575
 10
23.512841
 20
6.477700
 10
24.829716
 20
6.477700
  0
LWPOLYLINE
  8
0
 62
7
 90
5
 70
1
 10
26.988716
 20
9.803138
 10
26.988716
 20
10.461575
 10
25.671841
 20
10.461575
 10
25.671841
 20
9.144700
 10
26.988716
 20
9.144700
  0
LWPOLYLINE
  8
0
 62
7
 90
5
 70
1
 10
26.988716
 20
12.343137
 10
26.988716
 20
13.001575
 10
25.671841
 20
13.001575
 10
25.671841
 20
11.684700
 10
26.988716
 20
11.684700
  0
LWPOLYLINE
  8
0
 62
7
 90
5
 70
1
 10
26.988716
 20
14.883138
 10
26.988716
 20
15.541575
 10
25.671841
 20
15.541575
 10
25.671841
 20
14.224700
 10
26.988716
 20
14.224700
  0
LWPOLYLINE
  8
0
 62
7
 90
5
 70
1
 10
26.988716
 20
17.423137
 10
26.988716
 20
18.081575
 10
25.671841
 20
18.081575
 10
25.671841
 20
16.764700
 10
26.988716
 20
16.764700
  0
LWPOLYLINE
  8
0
 62
7
 90
5
 70
1
 10
23.940716
 20
19.836137
 10
23.940716
 20
20.494575
 10
22.623841
 20
20.494575
 10
22.623841
 20
19.177700
 10
23.940716
 20
19.177700
  0
LWPOLYLINE
  8
0
 62
7
 90
5
 70
1
 10
21.400716
 20
19.836137
 10
21.400716
 20
20.494575
 10
20.083841
 20
20.494575
 10
20.083841
 20
19.177700
 10
21.400716
 20
19.177700
  0
LWPOLYLINE
  8
0
 62
7
 90
5
 70
1
 10
18.860716
 20
19.836137
 10
18.860716
 20
20.494575
 10
17.543841
 20
20.494575
 10
17.543841
 20
19.177700
 10
18.860716
 20
19.177700
  0
LWPOLYLINE
  8
0
 62
7
 90
5
 70
1
 10
16.320716
 20
19.836137
 10
16.320716
 20
20.494575
 10
15.003841
 20
20.494575
 10
15.003841
 20
19.177700
 10
16.320716
 20
19.177700
  0
LWPOLYLINE
  8
0
 62
7
 90
5
 70
1
 10
14.288716
 20
17.677138
 10
14.288716
 20
18.335575
 10
12.971841
 20
18.335575
 10
12.971841
 20
17.018700
 10
14.288716
 20
17.018700
  0
LWPOLYLINE
  8
0
 62
7
 90
5
 70
1
 10
14.288716
 20
15.137137
 10
14.288716
 20
15.795575
 10
12.971841
 20
15.795575
 10
12.971841
 20
14.478700
 10
14.288716
 20
14.478700
  0
LWPOLYLINE
  8
0
 62
7
 90
5
 70
1
 10
14.288716
 20
12.597138
 10
14.288716
 20
13.255575
 10
12.971841
 20
13.255575
 10
12.971841
 20
11.938700
 10
14.288716
 20
11.938700
  0
LWPOLYLINE
  8
0
 62
7
 90
5
 70
1
 10
14.288716
 20
10.057137
 10
14.288716
 20
10.715575
 10
12.971841
 20
10.715575
 10
12.971841
 20
9.398700
 10
14.288716
 20
9.398700
  0
LWPOLYLINE
  8
0
 62
7
 90
5
 70
1
 10
49.571278
 20
7.794575
 10
48.912841
 20
7.794575
 10
48.912841
 20
6.477700
 10
50.229716
 20
6.477700
 10
50.229716
 20
7.794575
  0
LWPOLYLINE
  8
0
 62
7
 90
5
 70
1
 10
52.769716
 20
7.136138
 10
52.769716
 20
7.794575
 10
51.452841
 20
7.794575
 10
51.452841
 20
6.477700
 10
52.769716
 20
6.477700
  0
LWPOLYLINE
  8
0
 62
7
 90
5
 70
1
 10
55.309716
 20
7.136138
 10
55.309716
 20
7.794575
 10
53.992841
 20
7.794575
 10
53.992841
 20
6.477700
 10
55.309716
 20
6.477700
  0
LWPOLYLINE
  8
0
 62
7
 90
5
 70
1
 10
57.849716
 20
7.136138
 10
57.849716
 20
7.794575
 10
56.532841
 20
7.794575
 10
56.532841
 20
6.477700
 10
57.849716
 20
6.477700
  0
LWPOLYLINE
  8
0
 62
7
 90
5
 70
1
 10
60.008716
 20
9.803138
 10
60.008716
 20
10.461575
 10
58.691841
 20
10.461575
 10
58.691841
 20
9.144700
 10
60.008716
 20
9.144700
  0
LWPOLYLINE
  8
0
 62
7
 90
5
 70
1
 10
60.008716
 20
12.343137
 10
60.008716
 20
13.001575
 10
58.691841
 20
13.001575
 10
58.691841
 20
11.684700
 10
60.008716
 20
11.684700
  0
LWPOLYLINE
  8
0
 62
7
 90
5
 70
1
 10
60.008716
 20
14.883138
 10
60.008716
 20
15.541575
 10
58.691841
 20
15.541575
 10
58.691841
 20
14.224700
 10
60.008716
 20
14.224700
  0
LWPOLYLINE
  8
0
 62
7
 90
5
 70
1
 10
60.008716
 20
17.423137
 10
60.008716
 20
18.081575
 10
58.691841
 20
18.081575
 10
58.691841
 20
16.764700
 10
60.008716
 20
16.764700
  0
LWPOLYLINE
  8
0
 62
7
 90
5
 70
1
 10
56.960716
 20
19.836137
 10
56.960716
 20
20.494575
 10
55.643841
 20
20.494575
 10
55.643841
 20
19.177700
 10
56.960716
 20
19.177700
  0
LWPOLYLINE
  8
0
 62
7
 90
5
 70
1
 10
54.420716
 20
19.836137
 10
54.420716
 20
20.494575
 10
53.103841
 20
20.494575
 10
53.103841
 20
19.177700
 10
54.420716
 20
19.177700
  0
LWPOLYLINE
  8
0
 62
7
 90
5
 70
1
 10
51.880716
 20
19.836137
 10
51.880716
 20
20.494575
 10
50.563841
 20
20.494575
 10
50.563841
 20
19.177700
 10
51.880716
 20
19.177700
  0
LWPOLYLINE
  8
0
 62
7
 90
5
 70
1
 10
49.340716
 20
19.836137
 10
49.340716
 20
20.494575
 10
48.023841
 20
20.494575
 10
48.023841
 20
19.177700
 10
49.340716
 20
19.177700
  0
LWPOLYLINE
  8
0
 62
7
 90
5
 70
1
 10
47.308716
 20
17.677138
 10
47.308716
 20
18.335575
 10
45.991841
 20
18.335575
 10
45.991841
 20
17.018700
 10
47.308716
 20
17.018700
  0
LWPOLYLINE
  8
0
 62
7
 90
5
 70
1
 10
47.308716
 20
15.137137
 10
47.308716
 20
15.795575
 10
45.991841
 20
15.795575
 10
45.991841
 20
14.478700
 10
47.308716
 20
14.478700
  0
LWPOLYLINE
  8
0
 62
7
 90
5
 70
1
 10
47.308716
 20
12.597138
 10
47.308716
 20
13.255575
 10
45.991841
 20
13.255575
 10
45.991841
 20
11.938700
 10
47.308716
 20
11.938700
  0
LWPOLYLINE
  8
0
 62
7
 90
5
 70
1
 10
47.308716
 20
10.057137
 10
47.308716
 20
10.715575
 10
45.991841
 20
10.715575
 10
45.991841
 20
9.398700
 10
47.308716
 20
9.398700
  0
LWPOLYLINE
  8
0
 62
7
 90
5
 70
1
 10
82.591278
 20
7.794575
 10
81.932841
 20
7.794575
 10
81.932841
 20
6.477700
 10
83.249716
 20
6.477700
 10
83.249716
 20
7.794575
  0
LWPOLYLINE
  8
0
 62
7
 90
5
 70
1
 10
85.789716
 20
7.136138
 10
85.789716
 20
7.794575
 10
84.472841
 20
7.794575
 10
84.472841
 20
6.477700
 10
85.789716
 20
6.477700
  0
LWPOLYLINE
  8
0
 62
7
 90
5
 70
1
 10
88.329716
 20
7.136138
 10
88.329716
 20
7.794575
 10
87.012841
 20
7.794575
 10
87.012841
 20
6.477700
 10
88.329716
 20
6.477700
  0
LWPOLYLINE
  8
0
 62
7
 90
5
 70
1
 10
90.869716
 20
7.136138
 10
90.869716
 20
7.794575
 10
89.552841
 20
7.794575
 10
89.552841
 20
6.477700
 10
90.869716
 20
6.477700
  0
LWPOLYLINE
  8
0
 62
7
 90
5
 70
1
 10
93.028716
 20
9.803138
 10
93.028716
 20
10.461575
 10
91.711841
 20
10.461575
 10
91.711841
 20
9.144700
 10
93.028716
 20
9.144700
  0
LWPOLYLINE
  8
0
 62
7
 90
5
 70
1
 10
93.028716
 20
12.343137
 10
93.028716
 20
13.001575
 10
91.711841
 20
13.001575
 10
91.711841
 20
11.684700
 10
93.028716
 20
11.684700
  0
LWPOLYLINE
  8
0
 62
7
 90
5
 70
1
 10
93.028716
 20
14.883138
 10
93.028716
 20
15.541575
 10
91.711841
 20
15.541575
 10
91.711841
 20
14.224700
 10
93.028716
 20
14.224700
  0
LWPOLYLINE
  8
0
 62
7
 90
5
 70
1
 10
93.028716
 20
17.423137
 10
93.028716
 20
18.081575
 10
91.711841
 20
18.081575
 10
91.711841
 20
16.764700
 10
93.028716
 20
16.764700
  0
LWPOLYLINE
  8
0
 62
7
 90
5
 70
1
 10
89.980716
 20
19.836137
 10
89.980716
 20
20.494575
 10
88.663841
 20
20.494575
 10
88.663841
 20
19.177700
 10
89.980716
 20
19.177700
  0
LWPOLYLINE
  8
0
 62
7
 90
5
 70
1
 10
87.440716
 20
19.836137
 10
87.440716
 20
20.494575
 10
86.123841
 20
20.494575
 10
86.123841
 20
19.177700
 10
87.440716
 20
19.177700
  0
LWPOLYLINE
  8
0
 62
7
 90
5
 70
1
 10
84.900716
 20
19.836137
 10
84.900716
 20
20.494575
 10
83.583841
 20
20.494575
 10
83.583841
 20
19.177700
 10
84.900716
 20
19.177700
  0
LWPOLYLINE
  8
0
 62
7
 90
5
 70
1
 10
82.360716
 20
19.836137
 10
82.360716
 20
20.494575
 10
81.043841
 20
20.494575
 10
81.043841
 20
19.177700
 10
82.360716
 20
19.177700
  0
LWPOLYLINE
  8
0
 62
7
 90
5
 70
1
 10
80.328716
 20
17.677138
 10
80.328716
 20
18.335575
 10
79.011841
 20
18.335575
 10
79.011841
 20
17.018700
 10
80.328716
 20
17.018700
  0
LWPOLYLINE
  8
0
 62
7
 90
5
 70
1
 10
80.328716
 20
15.137137
 10
80.328716
 20
15.795575
 10
79.011841
 20
15.795575
 10
79.011841
 20
14.478700
 10
80.328716
 20
14.478700
  0
LWPOLYLINE
  8
0
 62
7
 90
5
 70
1
 10
80.328716
 20
12.597138
 10
80.328716
 20
13.255575
 10
79.011841
 20
13.255575
 10
79.011841
 20
11.938700
 10
80.328716
 20
11.938700
  0
LWPOLYLINE
  8
0
 62
7
 90
5
 70
1
 10
80.328716
 20
10.057137
 10
80.328716
 20
10.715575
 10
79.011841
 20
10.715575
 10
79.011841
 20
9.398700
 10
80.328716
 20
9.398700
  0
ENDSEC
  0
EOF
